<?xml version="1.0" encoding="UTF-8"?><svg id="uuid-b1948b28-dc1f-42db-9f45-baa5627ce793" xmlns="http://www.w3.org/2000/svg" xmlns:xlink="http://www.w3.org/1999/xlink" viewBox="0 0 26 25"><defs><style>.uuid-546009e7-8f09-47f0-9e29-5253d2c4b986{fill:url(#uuid-a1c7715f-0126-4032-ab78-75456ac760cf);}</style><linearGradient id="uuid-a1c7715f-0126-4032-ab78-75456ac760cf" x1="2.89" y1="4.5" x2="23.11" y2="24.72" gradientUnits="userSpaceOnUse"><stop offset="0" stop-color="#ef4444"/><stop offset="1" stop-color="#dc2626"/></linearGradient></defs><path class="uuid-546009e7-8f09-47f0-9e29-5253d2c4b986" d="m24,7h-4.39s.1-.08.15-.12c.77-.68,1.22-1.65,1.24-2.68C21.07,1.95,19.3.07,17.04,0c-.08,0-.16,0-.24,0-1.03.02-2,.47-2.68,1.24-.47.54-.85,1.15-1.12,1.81-.28-.66-.66-1.27-1.12-1.81C11.19.47,10.22.02,9.19,0c-2.25-.07-4.13,1.71-4.2,3.96,0,.08,0,.16,0,.24.02,1.03.47,2,1.24,2.68.05.04.1.08.15.12H2c-1.1,0-2,.9-2,2v4c0,1.1.9,2,2,2v8c0,1.1.9,2,2,2h18c1.1,0,2-.9,2-2v-8c1.1,0,2-.9,2-2v-4c0-1.1-.9-2-2-2ZM15.62,2.57c.32-.35.77-.56,1.25-.56h.06c1.15,0,2.07.94,2.06,2.09,0,.01,0,.03,0,.04,0,.48-.21.93-.56,1.25-1.19,1.05-3.16,1.42-4.38,1.55.15-1.32.56-3.25,1.56-4.37Zm-8.01.05c.39-.39.91-.61,1.46-.61h.06c.48,0,.93.21,1.25.56,1.05,1.18,1.42,3.15,1.55,4.36-1.22-.12-3.18-.5-4.36-1.55-.35-.32-.56-.77-.56-1.25-.02-.57.2-1.12.6-1.52h0Zm-5.61,6.39h10v4H2v-4Zm2,6h8v8H4v-8Zm18,8h-8v-8h8v8Zm2-10h-10v-4h10v4Z"/></svg>