<?xml version="1.0" encoding="utf-8"?>
<!-- Generator: Adobe Illustrator 26.0.0, SVG Export Plug-In . SVG Version: 6.00 Build 0)  -->
<svg version="1.1" xmlns="http://www.w3.org/2000/svg" xmlns:xlink="http://www.w3.org/1999/xlink" x="0px" y="0px"
	 viewBox="0 0 750 500" style="enable-background:new 0 0 750 500;" xml:space="preserve">
<style type="text/css">
	.st0{opacity:0.5;}
	.st1{clip-path:url(#SVGID_00000049932440918768054810000010370554209561580432_);}
	.st2{fill:#FFFDFD;}
</style>
<g id="BACKGROUND">
</g>
<g id="OBJECTS">
	<g class="st0">
		<defs>
			<rect id="SVGID_1_" x="26.59" y="10" class="st0" width="705.51" height="502.46"/>
		</defs>
		<clipPath id="SVGID_00000016782921600110704480000005992903258347843764_">
			<use xlink:href="#SVGID_1_"  style="overflow:visible;"/>
		</clipPath>
		<g style="clip-path:url(#SVGID_00000016782921600110704480000005992903258347843764_);">
			<g id="_x3C_Repetición_de_cuadrícula_x3E__00000098220402375496304110000014816664117655712390_">
				<g>
					<path class="st2" d="M640.08,105.57l-14.31,2.7c-0.76,0.14-1.32,0.8-1.25,1.47c0.01,0.12,0.04,0.23,0.09,0.34l6.88,14.74
						c-4.28-0.93-9.02,1.56-10.59,5.57c-1.57,4.01,0.63,8.01,4.91,8.95c4.28,0.93,9.02-1.56,10.59-5.57
						c0.7-1.79,0.67-3.67-0.08-5.27l-5.42-11.61l12.47-2.35c0.76-0.14,1.32-0.8,1.25-1.47c-0.01-0.12-0.04-0.23-0.09-0.34
						l-3.05-6.54C641.26,105.71,640.69,105.46,640.08,105.57z M630.69,136.43c-2.82,1.32-6.02,0.44-7.15-1.97
						c-1.12-2.41,0.26-5.43,3.08-6.74c2.82-1.32,6.02-0.44,7.15,1.97C634.89,132.1,633.51,135.12,630.69,136.43z M641.29,112.46
						l-11.45,2.16l-1.99-4.26l11.45-2.15L641.29,112.46z"/>
					<path class="st2" d="M410.07,111.98l-4.63-2.44c0.07-0.02,0.15-0.03,0.22-0.05c1.19-0.3,2.21-1.08,2.81-2.16
						c1.33-2.36,0.51-5.34-1.83-6.66c-0.08-0.05-0.17-0.09-0.25-0.13c-1.1-0.55-2.37-0.61-3.52-0.17c-0.8,0.32-1.54,0.76-2.2,1.3
						c0.07-0.86,0.01-1.72-0.18-2.55c-0.29-1.2-1.07-2.21-2.14-2.81c-2.34-1.32-5.32-0.48-6.65,1.88c-0.05,0.08-0.09,0.17-0.13,0.26
						c-0.55,1.1-0.62,2.39-0.19,3.54c0.03,0.07,0.06,0.14,0.08,0.21l-4.63-2.44c-1.17-0.61-2.61-0.16-3.23,1.02l-2.24,4.26
						c-0.62,1.18-0.17,2.63,0.99,3.24l-4.48,8.51c-0.62,1.18-0.17,2.63,0.99,3.24l19.02,10c1.17,0.61,2.61,0.16,3.23-1.02l4.48-8.51
						c1.17,0.61,2.61,0.16,3.23-1.02l2.24-4.26C411.68,114.04,411.24,112.59,410.07,111.98z M403.7,102.6
						c0.54-0.2,1.13-0.16,1.64,0.1l0.06,0.03c1.21,0.65,1.66,2.15,1.01,3.37c-0.01,0.02-0.02,0.03-0.02,0.05
						c-0.27,0.5-0.74,0.87-1.29,1.02c-1.84,0.46-4.13-0.24-5.49-0.78C400.51,105.06,402.02,103.24,403.7,102.6z M395.22,98.2
						c0.63-0.2,1.3-0.14,1.88,0.16l0.06,0.03c0.5,0.27,0.87,0.74,1.01,1.29c0.44,1.84-0.26,4.14-0.81,5.51
						c-1.21-0.81-3.08-2.3-3.74-4.07c-0.19-0.54-0.16-1.13,0.11-1.64C394.03,98.87,394.56,98.4,395.22,98.2L395.22,98.2z
						 M385.71,101.88l10.56,5.56l-2.24,4.26l-10.56-5.56L385.71,101.88z M384.46,109.38l8.45,4.44l-4.48,8.51l-8.45-4.44
						L384.46,109.38z M399,127.89l-8.45-4.44l4.48-8.51l8.45,4.44L399,127.89z M406.71,118.36l-10.56-5.56l2.24-4.26l10.56,5.56
						L406.71,118.36z"/>
					<path class="st2" d="M55.35,29.68l-2.44-1.92c-0.45-0.35-0.43-1.12,0.03-1.71s1.21-0.79,1.66-0.43l2.44,1.92
						c0.45,0.35,0.43,1.12-0.03,1.71C56.54,29.84,55.79,30.03,55.35,29.68z M49.72,21.77l-0.81-0.64l0.85-1.07
						c0.47-0.59,0.48-1.36,0.03-1.71c-0.45-0.35-1.19-0.16-1.66,0.43l-0.85,1.07l-0.81-0.64c-0.45-0.35-1.19-0.16-1.66,0.43
						c-0.47,0.59-0.48,1.36-0.03,1.71l0.81,0.64l-0.85,1.07c-0.47,0.59-0.48,1.36-0.03,1.71c0.45,0.35,1.19,0.16,1.66-0.43
						l0.85-1.07l0.81,0.64c0.45,0.35,1.19,0.16,1.66-0.43C50.16,22.89,50.17,22.12,49.72,21.77z M52.62,46.81
						c-2.88,1.27-5.58,0-6.03-2.83c-0.05-0.3-0.07-0.61-0.06-0.92c0-0.03,0-0.05,0-0.08l0.73-9.23l-3.76-2.96l-8.8,2.87l-0.07,0.02
						c-1.4,0.36-2.73,0.14-3.7-0.63c-2.02-1.59-1.95-5.05,0.15-7.71c0.22-0.28,0.46-0.55,0.72-0.79c0-0.01,0.01-0.01,0.01-0.02
						l10.55-9.97c3.54-3.44,8.27-4.25,11.23-1.92l8.95,7.06c2.94,2.33,3.27,7.09,0.78,11.33c-0.01,0.01-0.01,0.02-0.02,0.02
						l-7.24,12.6c0,0.01-0.01,0.01-0.01,0.02C55.25,45.07,54.01,46.2,52.62,46.81z M51.56,33.65c2.47,1.95,6.55,0.88,9.12-2.38
						c2.57-3.26,2.65-7.48,0.18-9.42l-8.95-7.06c-2.17-1.71-5.64-1.11-8.23,1.42l-0.01,0.02l-10.56,9.97
						c-1.34,1.31-1.7,3.28-0.79,4.41c0.53,0.66,1.4,0.9,2.34,0.67l9.29-3.03c0.34-0.11,0.66-0.07,0.9,0.12L51.56,33.65z M54.17,42.8
						l3.87-6.74c-2.98,1.49-6.07,1.39-8.18-0.27l-0.43-0.34l-0.56,7.02c-0.01,0.97,0.44,1.76,1.2,2.12
						C51.38,45.21,53.21,44.41,54.17,42.8L54.17,42.8z"/>
					<path class="st2" d="M274.46,12.79l-3.42,2.32l-3.56-1.62c-0.39-0.18-0.82-0.15-1.15,0.08l-7.9,5.37
						c-0.33,0.22-0.51,0.61-0.49,1.04l0.19,3.91l-3.42,2.32c-1.64,1.11-1.98,3.46-0.76,5.26l10.28,15.14
						c1.22,1.79,3.53,2.34,5.17,1.23l19.75-13.41c1.64-1.11,1.98-3.46,0.76-5.26l-10.28-15.14
						C278.4,12.23,276.09,11.68,274.46,12.79z M287.93,30.5c0.41,0.6,0.29,1.38-0.25,1.75l-19.75,13.41
						c-0.55,0.37-1.32,0.19-1.72-0.41l-10.28-15.14c-0.41-0.6-0.29-1.38,0.25-1.75l3.95-2.68c0.33-0.22,0.52-0.61,0.5-1.04l-0.2-3.9
						l6.84-4.65l3.56,1.62c0.39,0.18,0.82,0.15,1.15-0.08l3.95-2.68c0.55-0.37,1.32-0.19,1.72,0.41L287.93,30.5z M267.52,23.83
						c-3,2.04-3.62,6.35-1.39,9.64c2.23,3.28,6.47,4.29,9.47,2.26c3-2.04,3.62-6.35,1.39-9.64
						C274.76,22.8,270.52,21.79,267.52,23.83z M274.13,33.56c-1.91,1.3-4.61,0.65-6.03-1.44c-1.42-2.09-1.02-4.83,0.89-6.13
						c1.91-1.3,4.61-0.65,6.03,1.44C276.43,29.52,276.04,32.26,274.13,33.56z"/>
					<path class="st2" d="M504.16,10.19l-8.04,3.74c-1.58,0.74-2.68,2.27-2.96,4.14c-1.61-0.99-3.49-1.14-5.08-0.4l-8.04,3.74
						c-1.11,0.52-1.54,1.95-0.95,3.21l8.45,18.17c0.58,1.25,1.96,1.85,3.07,1.34l8.04-3.74c1.67-0.77,3.72,0.12,4.6,2
						c0.29,0.63,0.98,0.93,1.53,0.67c0.55-0.26,0.77-0.98,0.48-1.6c-0.88-1.88-0.23-4.03,1.43-4.81l8.04-3.74
						c1.11-0.52,1.54-1.95,0.95-3.21l-8.45-18.17C506.64,10.27,505.27,9.67,504.16,10.19z M497.59,38.11l-8.04,3.74l-8.45-18.17
						l8.04-3.74c1.67-0.77,3.72,0.12,4.6,2l7.4,15.9C499.92,37.51,498.68,37.6,497.59,38.11z M513.67,30.63l-8.04,3.74
						c-1.09,0.5-1.96,1.39-2.49,2.54l-7.4-15.9c-0.88-1.88-0.23-4.03,1.43-4.81l8.04-3.74L513.67,30.63z"/>
					<path class="st2" d="M720.59,33.86c0.22,0.55-0.05,1.1-0.59,1.22l-17.82,3.84c-0.55,0.12-1.17-0.24-1.39-0.79
						s0.05-1.1,0.59-1.22l17.82-3.84C719.76,32.95,720.38,33.3,720.59,33.86z M723.41,16.54c0.06,0.29-0.01,0.58-0.2,0.78
						l-13.89,14.96c-0.58,0.62-1.35,1.04-2.23,1.23c-2.78,0.92-7.76-3.04-10.14-4.11c-1.52-0.82-1.84-2.77-0.44-3.67
						c0.34-0.53,4.18,0.28,4.7,0.23l1.89-2.07l-3.75-2.08c-1.87-1.05-1.77-3.14,0.04-3.99c0.12-0.49,7.98,0.95,8.35,0.9
						c3.3-3.11,6.15-9.19,11.68-5.44C719.88,13.75,723.42,15.78,723.41,16.54z M720.79,16.6c-1.71-1.31-4.63-3.68-6.5-1.61
						c0,0-5.16,5.56-5.16,5.56c-0.2,0.21-0.5,0.31-0.82,0.26l-7.77-1.07l-0.42,0.3c0.02-0.01,5.05,2.81,5.08,2.81
						c0.62,0.35,0.88,1.12,0.45,1.62c-3.99,4.14-1.98,3.8-7.84,3.12c-0.01,0.01-0.04,0.04-0.06,0.05c0,0.01,6.22,3.46,6.22,3.47
						c1.31,0.7,2.81,0.56,3.67-0.36L720.79,16.6z"/>
					<path class="st2" d="M149.14,95.9c-0.66,0-1.2,0.64-1.2,1.43c0,0.79,0.53,1.43,1.19,1.44c1.32,0,2.38,1.29,2.38,2.87
						l-0.03,10.02l-26.26-0.08l0.03-10.02c0.01-1.58,1.08-2.86,2.4-2.86c0.66,0,1.2-0.64,1.2-1.43c0-0.79-0.53-1.43-1.19-1.44
						c-2.64-0.01-4.78,2.55-4.79,5.71L122.81,118c-0.01,4.35,2.91,7.88,6.54,7.89c3.63,0.01,6.58-3.5,6.59-7.85l0.01-3.58l4.77,0.02
						l-0.01,3.58c-0.01,4.35,2.91,7.88,6.54,7.89s6.58-3.5,6.59-7.85l0.05-16.46C153.91,98.47,151.78,95.9,149.14,95.9z
						 M150.94,120.47l-4.95-5.98l5.47,0.02l-0.01,3.58C151.45,118.92,151.28,119.74,150.94,120.47z M125.2,118.01l0.01-2.99
						l6.14,7.41c-2.03,1.31-4.57,0.39-5.65-2.04C125.36,119.66,125.19,118.84,125.2,118.01z M133.55,118.03
						c0,0.83-0.18,1.65-0.51,2.38l-4.95-5.98l5.47,0.02L133.55,118.03z M143.1,118.06l0.01-2.99l6.14,7.41
						c-2.03,1.31-4.57,0.39-5.65-2.04C143.27,119.71,143.1,118.9,143.1,118.06z"/>
					<path class="st2" d="M-52.18,170.29c-0.66,0-1.2,0.64-1.2,1.43c0,0.79,0.53,1.43,1.19,1.44c1.32,0,2.38,1.29,2.38,2.87
						l-0.03,10.02l-26.26-0.08l0.03-10.02c0.01-1.58,1.08-2.86,2.4-2.86c0.66,0,1.2-0.64,1.2-1.43s-0.53-1.43-1.19-1.44
						c-2.64-0.01-4.78,2.55-4.79,5.71l-0.05,16.46c-0.01,4.35,2.91,7.88,6.54,7.89c3.63,0.01,6.58-3.5,6.59-7.85l0.01-3.58
						l4.77,0.02l-0.01,3.58c-0.01,4.35,2.91,7.88,6.54,7.89c3.63,0.01,6.58-3.5,6.59-7.85l0.05-16.46
						C-47.42,172.87-49.55,170.3-52.18,170.29z M-50.38,194.87l-4.95-5.98l5.47,0.02l-0.01,3.58
						C-49.87,193.32-50.04,194.14-50.38,194.87z M-76.13,192.4l0.01-2.99l6.14,7.41c-2.03,1.31-4.57,0.39-5.65-2.04
						C-75.96,194.05-76.13,193.23-76.13,192.4z M-67.77,192.43c0,0.83-0.18,1.65-0.51,2.38l-4.95-5.98l5.47,0.02L-67.77,192.43z
						 M-58.22,192.46l0.01-2.99l6.14,7.41c-2.03,1.31-4.57,0.39-5.65-2.04C-58.05,194.11-58.22,193.29-58.22,192.46z"/>
				</g>
			</g>
			<g id="_x3C_Repetición_de_cuadrícula_x3E__00000122711873381862686340000015497921643455135391_">
				<g>
					<path class="st2" d="M640.08,317.27l-14.31,2.7c-0.76,0.14-1.32,0.8-1.25,1.47c0.01,0.12,0.04,0.23,0.09,0.34l6.88,14.74
						c-4.28-0.93-9.02,1.56-10.59,5.57c-1.57,4.01,0.63,8.01,4.91,8.95c4.28,0.93,9.02-1.56,10.59-5.57
						c0.7-1.79,0.67-3.67-0.08-5.27l-5.42-11.61l12.47-2.35c0.76-0.14,1.32-0.8,1.25-1.47c-0.01-0.12-0.04-0.23-0.09-0.34
						l-3.05-6.54C641.26,317.4,640.69,317.15,640.08,317.27z M630.69,348.13c-2.82,1.32-6.02,0.44-7.15-1.97
						c-1.12-2.41,0.26-5.43,3.08-6.74c2.82-1.32,6.02-0.44,7.15,1.97C634.89,343.79,633.51,346.81,630.69,348.13z M641.29,324.15
						l-11.45,2.16l-1.99-4.26l11.45-2.15L641.29,324.15z"/>
					<path class="st2" d="M410.07,323.67l-4.63-2.44c0.07-0.02,0.15-0.03,0.22-0.05c1.19-0.3,2.21-1.08,2.81-2.16
						c1.33-2.36,0.51-5.34-1.83-6.66c-0.08-0.05-0.17-0.09-0.25-0.13c-1.1-0.55-2.37-0.61-3.52-0.17c-0.8,0.32-1.54,0.76-2.2,1.3
						c0.07-0.86,0.01-1.72-0.18-2.55c-0.29-1.2-1.07-2.21-2.14-2.81c-2.34-1.32-5.32-0.48-6.65,1.88c-0.05,0.08-0.09,0.17-0.13,0.26
						c-0.55,1.1-0.62,2.39-0.19,3.54c0.03,0.07,0.06,0.14,0.08,0.21l-4.63-2.44c-1.17-0.61-2.61-0.16-3.23,1.02l-2.24,4.26
						c-0.62,1.18-0.17,2.63,0.99,3.24l-4.48,8.51c-0.62,1.18-0.17,2.63,0.99,3.24l19.02,10c1.17,0.61,2.61,0.16,3.23-1.02l4.48-8.51
						c1.17,0.61,2.61,0.16,3.23-1.02l2.24-4.26C411.68,325.74,411.24,324.29,410.07,323.67z M403.7,314.3
						c0.54-0.2,1.13-0.16,1.64,0.1l0.06,0.03c1.21,0.65,1.66,2.15,1.01,3.37c-0.01,0.02-0.02,0.03-0.02,0.05
						c-0.27,0.5-0.74,0.87-1.29,1.02c-1.84,0.46-4.13-0.24-5.49-0.78C400.51,316.76,402.02,314.94,403.7,314.3z M395.22,309.89
						c0.63-0.2,1.3-0.14,1.88,0.16l0.06,0.03c0.5,0.27,0.87,0.74,1.01,1.29c0.44,1.84-0.26,4.14-0.81,5.51
						c-1.21-0.81-3.08-2.3-3.74-4.07c-0.19-0.54-0.16-1.13,0.11-1.64C394.03,310.56,394.56,310.1,395.22,309.89L395.22,309.89z
						 M385.71,313.58l10.56,5.56l-2.24,4.26l-10.56-5.56L385.71,313.58z M384.46,321.07l8.45,4.44l-4.48,8.51l-8.45-4.44
						L384.46,321.07z M399,339.59l-8.45-4.44l4.48-8.51l8.45,4.44L399,339.59z M406.71,330.06l-10.56-5.56l2.24-4.26l10.56,5.56
						L406.71,330.06z"/>
					<path class="st2" d="M55.35,241.37l-2.44-1.92c-0.45-0.35-0.43-1.12,0.03-1.71c0.47-0.59,1.21-0.79,1.66-0.43l2.44,1.92
						c0.45,0.35,0.43,1.12-0.03,1.71C56.54,241.53,55.79,241.73,55.35,241.37z M49.72,233.46l-0.81-0.64l0.85-1.07
						c0.47-0.59,0.48-1.36,0.03-1.71c-0.45-0.35-1.19-0.16-1.66,0.43l-0.85,1.07l-0.81-0.64c-0.45-0.35-1.19-0.16-1.66,0.43
						c-0.47,0.59-0.48,1.36-0.03,1.71l0.81,0.64l-0.85,1.07c-0.47,0.59-0.48,1.36-0.03,1.71c0.45,0.35,1.19,0.16,1.66-0.43
						l0.85-1.07l0.81,0.64c0.45,0.35,1.19,0.16,1.66-0.43C50.16,234.58,50.17,233.81,49.72,233.46z M52.62,258.51
						c-2.88,1.27-5.58,0-6.03-2.83c-0.05-0.3-0.07-0.61-0.06-0.92c0-0.03,0-0.05,0-0.08l0.73-9.23l-3.76-2.96l-8.8,2.87l-0.07,0.02
						c-1.4,0.36-2.73,0.14-3.7-0.63c-2.02-1.59-1.95-5.05,0.15-7.71c0.22-0.28,0.46-0.55,0.72-0.79c0-0.01,0.01-0.01,0.01-0.02
						l10.55-9.97c3.54-3.44,8.27-4.25,11.23-1.92l8.95,7.06c2.94,2.33,3.27,7.09,0.78,11.33c-0.01,0.01-0.01,0.02-0.02,0.02
						l-7.24,12.6c0,0.01-0.01,0.01-0.01,0.02C55.25,256.77,54.01,257.9,52.62,258.51z M51.56,245.34c2.47,1.95,6.55,0.88,9.12-2.38
						c2.57-3.26,2.65-7.48,0.18-9.42l-8.95-7.06c-2.17-1.71-5.64-1.11-8.23,1.42l-0.01,0.02l-10.56,9.97
						c-1.34,1.31-1.7,3.28-0.79,4.41c0.53,0.66,1.4,0.9,2.34,0.67l9.29-3.03c0.34-0.11,0.66-0.07,0.9,0.12L51.56,245.34z
						 M54.17,254.5l3.87-6.74c-2.98,1.49-6.07,1.39-8.18-0.27l-0.43-0.34l-0.56,7.02c-0.01,0.97,0.44,1.76,1.2,2.12
						C51.38,256.91,53.21,256.1,54.17,254.5L54.17,254.5z"/>
					<path class="st2" d="M274.46,224.49l-3.42,2.32l-3.56-1.62c-0.39-0.18-0.82-0.15-1.15,0.08l-7.9,5.37
						c-0.33,0.22-0.51,0.61-0.49,1.04l0.19,3.91l-3.42,2.32c-1.64,1.11-1.98,3.46-0.76,5.26l10.28,15.14
						c1.22,1.79,3.53,2.34,5.17,1.23l19.75-13.41c1.64-1.11,1.98-3.46,0.76-5.26l-10.28-15.14
						C278.4,223.93,276.09,223.38,274.46,224.49z M287.93,242.2c0.41,0.6,0.29,1.38-0.25,1.75l-19.75,13.41
						c-0.55,0.37-1.32,0.19-1.72-0.41l-10.28-15.14c-0.41-0.6-0.29-1.38,0.25-1.75l3.95-2.68c0.33-0.22,0.52-0.61,0.5-1.04l-0.2-3.9
						l6.84-4.65l3.56,1.62c0.39,0.18,0.82,0.15,1.15-0.08l3.95-2.68c0.55-0.37,1.32-0.19,1.72,0.41L287.93,242.2z M267.52,235.52
						c-3,2.04-3.62,6.35-1.39,9.64c2.23,3.28,6.47,4.29,9.47,2.26c3-2.04,3.62-6.35,1.39-9.64
						C274.76,234.5,270.52,233.49,267.52,235.52z M274.13,245.25c-1.91,1.3-4.61,0.65-6.03-1.44c-1.42-2.09-1.02-4.83,0.89-6.13
						s4.61-0.65,6.03,1.44C276.43,241.21,276.04,243.96,274.13,245.25z"/>
					<path class="st2" d="M504.16,221.88l-8.04,3.74c-1.58,0.74-2.68,2.27-2.96,4.14c-1.61-0.99-3.49-1.14-5.08-0.4l-8.04,3.74
						c-1.11,0.52-1.54,1.95-0.95,3.21l8.45,18.17c0.58,1.25,1.96,1.85,3.07,1.34l8.04-3.74c1.67-0.77,3.72,0.12,4.6,2
						c0.29,0.63,0.98,0.93,1.53,0.67c0.55-0.26,0.77-0.98,0.48-1.6c-0.88-1.88-0.23-4.03,1.43-4.81l8.04-3.74
						c1.11-0.52,1.54-1.95,0.95-3.21l-8.45-18.17C506.64,221.96,505.27,221.36,504.16,221.88z M497.59,249.8l-8.04,3.74l-8.45-18.17
						l8.04-3.74c1.67-0.77,3.72,0.12,4.6,2l7.4,15.9C499.92,249.2,498.68,249.29,497.59,249.8z M513.67,242.32l-8.04,3.74
						c-1.09,0.5-1.96,1.39-2.49,2.54l-7.4-15.9c-0.88-1.88-0.23-4.03,1.43-4.81l8.04-3.74L513.67,242.32z"/>
					<path class="st2" d="M720.59,245.55c0.22,0.55-0.05,1.1-0.59,1.22l-17.82,3.84c-0.55,0.12-1.17-0.24-1.39-0.79
						s0.05-1.1,0.59-1.22l17.82-3.84C719.76,244.65,720.38,245,720.59,245.55z M723.41,228.24c0.06,0.29-0.01,0.58-0.2,0.78
						l-13.89,14.96c-0.58,0.62-1.35,1.04-2.23,1.23c-2.78,0.92-7.76-3.04-10.14-4.11c-1.52-0.82-1.84-2.77-0.44-3.67
						c0.34-0.53,4.18,0.28,4.7,0.23l1.89-2.07l-3.75-2.08c-1.87-1.05-1.77-3.14,0.04-3.99c0.12-0.49,7.98,0.95,8.35,0.9
						c3.3-3.11,6.15-9.19,11.68-5.44C719.88,225.45,723.42,227.48,723.41,228.24z M720.79,228.3c-1.71-1.31-4.63-3.68-6.5-1.61
						c0,0-5.16,5.56-5.16,5.56c-0.2,0.21-0.5,0.31-0.82,0.26l-7.77-1.07l-0.42,0.3c0.02-0.01,5.05,2.81,5.08,2.81
						c0.62,0.35,0.88,1.12,0.45,1.62c-3.99,4.14-1.98,3.8-7.84,3.12c-0.01,0.01-0.04,0.04-0.06,0.05c0,0.01,6.22,3.46,6.22,3.47
						c1.31,0.7,2.81,0.56,3.67-0.36L720.79,228.3z"/>
					<path class="st2" d="M149.14,307.59c-0.66,0-1.2,0.64-1.2,1.43c0,0.79,0.53,1.43,1.19,1.44c1.32,0,2.38,1.29,2.38,2.87
						l-0.03,10.02l-26.26-0.08l0.03-10.02c0.01-1.58,1.08-2.86,2.4-2.86c0.66,0,1.2-0.64,1.2-1.43c0-0.79-0.53-1.43-1.19-1.44
						c-2.64-0.01-4.78,2.55-4.79,5.71l-0.05,16.46c-0.01,4.35,2.91,7.88,6.54,7.89c3.63,0.01,6.58-3.5,6.59-7.85l0.01-3.58
						l4.77,0.02l-0.01,3.58c-0.01,4.35,2.91,7.88,6.54,7.89c3.63,0.01,6.58-3.5,6.59-7.85l0.05-16.46
						C153.91,310.17,151.78,307.6,149.14,307.59z M150.94,332.17l-4.95-5.98l5.47,0.02l-0.01,3.58
						C151.45,330.62,151.28,331.44,150.94,332.17z M125.2,329.7l0.01-2.99l6.14,7.41c-2.03,1.31-4.57,0.39-5.65-2.04
						C125.36,331.35,125.19,330.53,125.2,329.7z M133.55,329.73c0,0.83-0.18,1.65-0.51,2.38l-4.95-5.98l5.47,0.02L133.55,329.73z
						 M143.1,329.76l0.01-2.99l6.14,7.41c-2.03,1.31-4.57,0.39-5.65-2.04C143.27,331.41,143.1,330.59,143.1,329.76z"/>
					<path class="st2" d="M-52.18,381.99c-0.66,0-1.2,0.64-1.2,1.43c0,0.79,0.53,1.43,1.19,1.44c1.32,0,2.38,1.29,2.38,2.87
						l-0.03,10.02l-26.26-0.08l0.03-10.02c0.01-1.58,1.08-2.86,2.4-2.86c0.66,0,1.2-0.64,1.2-1.43s-0.53-1.43-1.19-1.44
						c-2.64-0.01-4.78,2.55-4.79,5.71l-0.05,16.46c-0.01,4.35,2.91,7.88,6.54,7.89c3.63,0.01,6.58-3.5,6.59-7.85l0.01-3.58
						l4.77,0.02l-0.01,3.58c-0.01,4.35,2.91,7.88,6.54,7.89c3.63,0.01,6.58-3.5,6.59-7.85l0.05-16.46
						C-47.42,384.56-49.55,381.99-52.18,381.99z M-50.38,406.56l-4.95-5.98l5.47,0.02l-0.01,3.58
						C-49.87,405.01-50.04,405.83-50.38,406.56z M-76.13,404.1l0.01-2.99l6.14,7.41c-2.03,1.31-4.57,0.39-5.65-2.04
						C-75.96,405.75-76.13,404.93-76.13,404.1z M-67.77,404.12c0,0.83-0.18,1.65-0.51,2.38l-4.95-5.98l5.47,0.02L-67.77,404.12z
						 M-58.22,404.15l0.01-2.99l6.14,7.41c-2.03,1.31-4.57,0.39-5.65-2.04C-58.05,405.8-58.22,404.99-58.22,404.15z"/>
				</g>
			</g>
			<g id="_x3C_Repetición_de_cuadrícula_x3E__00000094603614412277011650000008548007434500525970_">
				<g>
					<path class="st2" d="M640.08,528.96l-14.31,2.7c-0.76,0.14-1.32,0.8-1.25,1.47c0.01,0.12,0.04,0.23,0.09,0.34l6.88,14.74
						c-4.28-0.93-9.02,1.56-10.59,5.57c-1.57,4.01,0.63,8.01,4.91,8.95c4.28,0.93,9.02-1.56,10.59-5.57
						c0.7-1.79,0.67-3.67-0.08-5.27l-5.42-11.61l12.47-2.35c0.76-0.14,1.32-0.8,1.25-1.47c-0.01-0.12-0.04-0.23-0.09-0.34
						l-3.05-6.54C641.26,529.1,640.69,528.85,640.08,528.96z M630.69,559.83c-2.82,1.32-6.02,0.44-7.15-1.97
						c-1.12-2.41,0.26-5.43,3.08-6.74s6.02-0.44,7.15,1.97C634.89,555.49,633.51,558.51,630.69,559.83z M641.29,535.85l-11.45,2.16
						l-1.99-4.26l11.45-2.15L641.29,535.85z"/>
					<path class="st2" d="M410.07,535.37l-4.63-2.44c0.07-0.02,0.15-0.03,0.22-0.05c1.19-0.3,2.21-1.08,2.81-2.16
						c1.33-2.36,0.51-5.34-1.83-6.66c-0.08-0.05-0.17-0.09-0.25-0.13c-1.1-0.55-2.37-0.61-3.52-0.17c-0.8,0.32-1.54,0.76-2.2,1.3
						c0.07-0.86,0.01-1.72-0.18-2.55c-0.29-1.2-1.07-2.21-2.14-2.81c-2.34-1.32-5.32-0.48-6.65,1.88c-0.05,0.08-0.09,0.17-0.13,0.26
						c-0.55,1.1-0.62,2.39-0.19,3.54c0.03,0.07,0.06,0.14,0.08,0.21l-4.63-2.44c-1.17-0.61-2.61-0.16-3.23,1.02l-2.24,4.26
						c-0.62,1.18-0.17,2.63,0.99,3.24l-4.48,8.51c-0.62,1.18-0.17,2.63,0.99,3.24l19.02,10c1.17,0.61,2.61,0.16,3.23-1.02l4.48-8.51
						c1.17,0.61,2.61,0.16,3.23-1.02l2.24-4.26C411.68,537.43,411.24,535.98,410.07,535.37z M403.7,525.99
						c0.54-0.2,1.13-0.16,1.64,0.1l0.06,0.03c1.21,0.65,1.66,2.15,1.01,3.37c-0.01,0.02-0.02,0.03-0.02,0.05
						c-0.27,0.5-0.74,0.87-1.29,1.02c-1.84,0.46-4.13-0.24-5.49-0.78C400.51,528.45,402.02,526.63,403.7,525.99z M395.22,521.59
						c0.63-0.2,1.3-0.14,1.88,0.16l0.06,0.03c0.5,0.27,0.87,0.74,1.01,1.29c0.44,1.84-0.26,4.14-0.81,5.51
						c-1.21-0.81-3.08-2.3-3.74-4.07c-0.19-0.54-0.16-1.13,0.11-1.64C394.03,522.26,394.56,521.79,395.22,521.59L395.22,521.59z
						 M385.71,525.27l10.56,5.56l-2.24,4.26l-10.56-5.56L385.71,525.27z M384.46,532.77l8.45,4.44l-4.48,8.51l-8.45-4.44
						L384.46,532.77z M399,551.28l-8.45-4.44l4.48-8.51l8.45,4.44L399,551.28z M406.71,541.75l-10.56-5.56l2.24-4.26l10.56,5.56
						L406.71,541.75z"/>
					<path class="st2" d="M55.35,453.07l-2.44-1.92c-0.45-0.35-0.43-1.12,0.03-1.71c0.47-0.59,1.21-0.79,1.66-0.43l2.44,1.92
						c0.45,0.35,0.43,1.12-0.03,1.71C56.54,453.23,55.79,453.42,55.35,453.07z M49.72,445.16l-0.81-0.64l0.85-1.07
						c0.47-0.59,0.48-1.36,0.03-1.71c-0.45-0.35-1.19-0.16-1.66,0.43l-0.85,1.07l-0.81-0.64c-0.45-0.35-1.19-0.16-1.66,0.43
						c-0.47,0.59-0.48,1.36-0.03,1.71l0.81,0.64l-0.85,1.07c-0.47,0.59-0.48,1.36-0.03,1.71c0.45,0.35,1.19,0.16,1.66-0.43
						l0.85-1.07l0.81,0.64c0.45,0.35,1.19,0.16,1.66-0.43C50.16,446.28,50.17,445.51,49.72,445.16z M52.62,470.2
						c-2.88,1.27-5.58,0-6.03-2.83c-0.05-0.3-0.07-0.61-0.06-0.92c0-0.03,0-0.05,0-0.08l0.73-9.23l-3.76-2.96l-8.8,2.87l-0.07,0.02
						c-1.4,0.36-2.73,0.14-3.7-0.63c-2.02-1.59-1.95-5.05,0.15-7.71c0.22-0.28,0.46-0.55,0.72-0.79c0-0.01,0.01-0.01,0.01-0.02
						l10.55-9.97c3.54-3.44,8.27-4.25,11.23-1.92l8.95,7.06c2.94,2.33,3.27,7.09,0.78,11.33c-0.01,0.01-0.01,0.02-0.02,0.02
						l-7.24,12.6c0,0.01-0.01,0.01-0.01,0.02C55.25,468.46,54.01,469.59,52.62,470.2z M51.56,457.04c2.47,1.95,6.55,0.88,9.12-2.38
						c2.57-3.26,2.65-7.48,0.18-9.42l-8.95-7.06c-2.17-1.71-5.64-1.11-8.23,1.42l-0.01,0.02l-10.56,9.97
						c-1.34,1.31-1.7,3.28-0.79,4.41c0.53,0.66,1.4,0.9,2.34,0.67l9.29-3.03c0.34-0.11,0.66-0.07,0.9,0.12L51.56,457.04z
						 M54.17,466.19l3.87-6.74c-2.98,1.49-6.07,1.39-8.18-0.27l-0.43-0.34l-0.56,7.02c-0.01,0.97,0.44,1.76,1.2,2.12
						C51.38,468.6,53.21,467.8,54.17,466.19L54.17,466.19z"/>
					<path class="st2" d="M274.46,436.19l-3.42,2.32l-3.56-1.62c-0.39-0.18-0.82-0.15-1.15,0.08l-7.9,5.37
						c-0.33,0.22-0.51,0.61-0.49,1.04l0.19,3.91l-3.42,2.32c-1.64,1.11-1.98,3.46-0.76,5.26l10.28,15.14
						c1.22,1.79,3.53,2.34,5.17,1.23l19.75-13.41c1.64-1.11,1.98-3.46,0.76-5.26l-10.28-15.14
						C278.4,435.63,276.09,435.07,274.46,436.19z M287.93,453.89c0.41,0.6,0.29,1.38-0.25,1.75l-19.75,13.41
						c-0.55,0.37-1.32,0.19-1.72-0.41l-10.28-15.14c-0.41-0.6-0.29-1.38,0.25-1.75l3.95-2.68c0.33-0.22,0.52-0.61,0.5-1.04l-0.2-3.9
						l6.84-4.65l3.56,1.62c0.39,0.18,0.82,0.15,1.15-0.08l3.95-2.68c0.55-0.37,1.32-0.19,1.72,0.41L287.93,453.89z M267.52,447.22
						c-3,2.04-3.62,6.35-1.39,9.64c2.23,3.28,6.47,4.29,9.47,2.26c3-2.04,3.62-6.35,1.39-9.64
						C274.76,446.19,270.52,445.18,267.52,447.22z M274.13,456.95c-1.91,1.3-4.61,0.65-6.03-1.44c-1.42-2.09-1.02-4.83,0.89-6.13
						s4.61-0.65,6.03,1.44C276.43,452.91,276.04,455.65,274.13,456.95z"/>
					<path class="st2" d="M504.16,433.58l-8.04,3.74c-1.58,0.74-2.68,2.27-2.96,4.14c-1.61-0.99-3.49-1.14-5.08-0.4l-8.04,3.74
						c-1.11,0.52-1.54,1.95-0.95,3.21l8.45,18.17c0.58,1.25,1.96,1.85,3.07,1.34l8.04-3.74c1.67-0.77,3.72,0.12,4.6,2
						c0.29,0.63,0.98,0.93,1.53,0.67c0.55-0.26,0.77-0.98,0.48-1.6c-0.88-1.88-0.23-4.03,1.43-4.81l8.04-3.74
						c1.11-0.52,1.54-1.95,0.95-3.21l-8.45-18.17C506.64,433.66,505.27,433.06,504.16,433.58z M497.59,461.5l-8.04,3.74l-8.45-18.17
						l8.04-3.74c1.67-0.77,3.72,0.12,4.6,2l7.4,15.9C499.92,460.9,498.68,460.99,497.59,461.5z M513.67,454.02l-8.04,3.74
						c-1.09,0.5-1.96,1.39-2.49,2.54l-7.4-15.9c-0.88-1.88-0.23-4.03,1.43-4.81l8.04-3.74L513.67,454.02z"/>
					<path class="st2" d="M720.59,457.25c0.22,0.55-0.05,1.1-0.59,1.22l-17.82,3.84c-0.55,0.12-1.17-0.24-1.39-0.79
						s0.05-1.1,0.59-1.22l17.82-3.84C719.76,456.34,720.38,456.7,720.59,457.25z M723.41,439.93c0.06,0.29-0.01,0.58-0.2,0.78
						l-13.89,14.96c-0.58,0.62-1.35,1.04-2.23,1.23c-2.78,0.92-7.76-3.04-10.14-4.11c-1.52-0.82-1.84-2.77-0.44-3.67
						c0.34-0.53,4.18,0.28,4.7,0.23l1.89-2.07l-3.75-2.08c-1.87-1.05-1.77-3.14,0.04-3.99c0.12-0.49,7.98,0.95,8.35,0.9
						c3.3-3.11,6.15-9.19,11.68-5.44C719.88,437.14,723.42,439.18,723.41,439.93z M720.79,439.99c-1.71-1.31-4.63-3.68-6.5-1.61
						c0,0-5.16,5.56-5.16,5.56c-0.2,0.21-0.5,0.31-0.82,0.26l-7.77-1.07l-0.42,0.3c0.02-0.01,5.05,2.81,5.08,2.81
						c0.62,0.35,0.88,1.12,0.45,1.62c-3.99,4.14-1.98,3.8-7.84,3.12c-0.01,0.01-0.04,0.04-0.06,0.05c0,0.01,6.22,3.46,6.22,3.47
						c1.31,0.7,2.81,0.56,3.67-0.36L720.79,439.99z"/>
					<path class="st2" d="M149.14,519.29c-0.66,0-1.2,0.64-1.2,1.43c0,0.79,0.53,1.43,1.19,1.44c1.32,0,2.38,1.29,2.38,2.87
						l-0.03,10.02l-26.26-0.08l0.03-10.02c0.01-1.58,1.08-2.86,2.4-2.86c0.66,0,1.2-0.64,1.2-1.43c0-0.79-0.53-1.43-1.19-1.44
						c-2.64-0.01-4.78,2.55-4.79,5.71l-0.05,16.46c-0.01,4.35,2.91,7.88,6.54,7.89c3.63,0.01,6.58-3.5,6.59-7.85l0.01-3.58
						l4.77,0.02l-0.01,3.58c-0.01,4.35,2.91,7.88,6.54,7.89c3.63,0.01,6.58-3.5,6.59-7.85l0.05-16.46
						C153.91,521.86,151.78,519.29,149.14,519.29z M150.94,543.86l-4.95-5.98l5.47,0.02l-0.01,3.58
						C151.45,542.31,151.28,543.13,150.94,543.86z M125.2,541.4l0.01-2.99l6.14,7.41c-2.03,1.31-4.57,0.39-5.65-2.04
						C125.36,543.05,125.19,542.23,125.2,541.4z M133.55,541.42c0,0.83-0.18,1.65-0.51,2.38l-4.95-5.98l5.47,0.02L133.55,541.42z
						 M143.1,541.45l0.01-2.99l6.14,7.41c-2.03,1.31-4.57,0.39-5.65-2.04C143.27,543.1,143.1,542.29,143.1,541.45z"/>
					<path class="st2" d="M-52.18,593.68c-0.66,0-1.2,0.64-1.2,1.43c0,0.79,0.53,1.43,1.19,1.44c1.32,0,2.38,1.29,2.38,2.87
						l-0.03,10.02l-26.26-0.08l0.03-10.02c0.01-1.58,1.08-2.86,2.4-2.86c0.66,0,1.2-0.64,1.2-1.43s-0.53-1.43-1.19-1.44
						c-2.64-0.01-4.78,2.55-4.79,5.71l-0.05,16.46c-0.01,4.35,2.91,7.88,6.54,7.89c3.63,0.01,6.58-3.5,6.59-7.85l0.01-3.58
						l4.77,0.02l-0.01,3.58c-0.01,4.35,2.91,7.88,6.54,7.89c3.63,0.01,6.58-3.5,6.59-7.85l0.05-16.46
						C-47.42,596.26-49.55,593.69-52.18,593.68z M-50.38,618.26l-4.95-5.98l5.47,0.02l-0.01,3.58
						C-49.87,616.71-50.04,617.53-50.38,618.26z M-76.13,615.79l0.01-2.99l6.14,7.41c-2.03,1.31-4.57,0.39-5.65-2.04
						C-75.96,617.44-76.13,616.62-76.13,615.79z M-67.77,615.82c0,0.83-0.18,1.65-0.51,2.38l-4.95-5.98l5.47,0.02L-67.77,615.82z
						 M-58.22,615.85l0.01-2.99l6.14,7.41c-2.03,1.31-4.57,0.39-5.65-2.04C-58.05,617.5-58.22,616.68-58.22,615.85z"/>
				</g>
			</g>
		</g>
	</g>
</g>
</svg>
